<svg xmlns="http://www.w3.org/2000/svg" xmlns:xlink="http://www.w3.org/1999/xlink" width="3.38in" height="1.79in" data-name="Calque 1" viewBox="0 0 243 129"><defs><linearGradient id="b" x1="97.65" x2="171.43" y1="45.69" y2="45.69" data-name="Nouvelle nuance de degrade 2" gradientUnits="userSpaceOnUse"><stop offset="0" stop-color="#64b331"/><stop offset="1" stop-color="#3a6d1c"/></linearGradient><linearGradient id="a" x1="24.38" x2="24.38" y1="74.49" y2="57.47" data-name="Nouvelle nuance de degrade 1" gradientUnits="userSpaceOnUse"><stop offset="0" stop-color="#f0e518"/><stop offset=".21" stop-color="#efe218"/><stop offset=".3" stop-color="#eedb19"/><stop offset=".37" stop-color="#ecce1b"/><stop offset=".43" stop-color="#e8bc1e"/><stop offset=".48" stop-color="#e4a522"/><stop offset=".53" stop-color="#df8927"/><stop offset=".54" stop-color="#de7e29"/><stop offset=".55" stop-color="#de8128"/><stop offset=".59" stop-color="#e3a023"/><stop offset=".65" stop-color="#e8b91f"/><stop offset=".7" stop-color="#ebcc1b"/><stop offset=".77" stop-color="#eeda19"/><stop offset=".85" stop-color="#efe218"/><stop offset="1" stop-color="#f0e518"/></linearGradient><linearGradient xlink:href="#a" id="c" x1="45.31" x2="45.31" y1="74.65" y2="62.44" data-name="Nouvelle nuance de degrade 1"/><linearGradient xlink:href="#a" id="d" x1="60.61" x2="60.61" data-name="Nouvelle nuance de degrade 1"/><linearGradient xlink:href="#a" id="e" x1="74.37" x2="74.37" y1="74.65" y2="62.44" data-name="Nouvelle nuance de degrade 1"/><linearGradient xlink:href="#a" id="f" x1="95.12" x2="95.12" y1="74.67" y2="62.62" data-name="Nouvelle nuance de degrade 1"/><linearGradient xlink:href="#a" id="g" x1="114.25" x2="114.25" y1="74.67" y2="62.39" data-name="Nouvelle nuance de degrade 1"/><linearGradient xlink:href="#a" id="h" x1="134.03" x2="134.03" y1="74.65" y2="62.44" data-name="Nouvelle nuance de degrade 1"/><linearGradient xlink:href="#a" id="i" x1="161.42" x2="161.42" y1="74.9" y2="57.87" data-name="Nouvelle nuance de degrade 1"/><linearGradient xlink:href="#a" id="j" x1="185.78" x2="185.78" y1="74.95" y2="57.8" data-name="Nouvelle nuance de degrade 1"/><linearGradient xlink:href="#a" id="k" x1="214.11" x2="214.11" y1="74.9" y2="57.87" data-name="Nouvelle nuance de degrade 1"/><linearGradient id="l" x1="93.19" x2="184.43" y1="30.8" y2="30.8" data-name="Degrade sans nom 41" gradientUnits="userSpaceOnUse"><stop offset="0" stop-color="#64b331"/><stop offset=".51" stop-color="#3a6d1c"/><stop offset="1" stop-color="#64b331"/></linearGradient><linearGradient id="m" x1="88.94" x2="178.07" y1="99.87" y2="99.87" data-name="Degrade sans nom 18" gradientUnits="userSpaceOnUse"><stop offset="0" stop-color="#f0e518"/><stop offset=".18" stop-color="#eee217"/><stop offset=".27" stop-color="#e8db16"/><stop offset=".33" stop-color="#ddce15"/><stop offset=".38" stop-color="#cebc13"/><stop offset=".43" stop-color="#baa510"/><stop offset=".47" stop-color="#a2880d"/><stop offset=".51" stop-color="#866609"/><stop offset=".54" stop-color="#664005"/><stop offset=".54" stop-color="#653f05"/><stop offset=".57" stop-color="#7d5c08"/><stop offset=".61" stop-color="#9c800c"/><stop offset=".65" stop-color="#b6a010"/><stop offset=".69" stop-color="#cbb913"/><stop offset=".74" stop-color="#dbcc15"/><stop offset=".8" stop-color="#e7da16"/><stop offset=".87" stop-color="#eee217"/><stop offset="1" stop-color="#f0e518"/></linearGradient></defs><path d="m170.41 45.11-2.69-3.71.77-9.21-2.24 7.54-1.41-1.09 1.41 1.53-3.84 13.23-4.28 5.05s-5.82-13.68-10.93-16.37l4.22 10.74-.64.38s-1.73-2.49-4.41-4.6c0 0-1.79-3.2-4.03-6.97 0 0-5.05-10.93-14.32-15.98 0 0 1.34 1.34 1.98 2.17 0 0-4.8 8.18-9.23 18.28 0 0-5.35-8.37-12.32-13.3 0 0 3.07 4.6 6.46 9.65l-.64 7.85-.51.78-3.96 1.98s-1.47-10.04-2.43-11.44l-1.21 11.96-.51-.13s-4.92-9.65-7.22-12.79c0 0 3.64 8.12 5.24 16.05l-3.39 2.49-1.21-2.24 1.73-.83-2.17.38s-.38-1.21-.96-1.92v10.87h5.24l-1.66-3.87 1.89-1.95s.86-.67 1.09-.22c0 0 1.18 2.01.83 6.04h5.21V62.2s2.05 1.31 2.05 3.26h11.57s-.24-3.34.13-3.29c.1-.11.24.06.45.92l.77 2.37h3.64s-1.92-6.52-3.07-9.08l3.71-2.88s1.28 5.63 1.47 11.96H137l-.32-1.47s-1.21-3.52-.26-1.98l1.66 3.45h7.74s.58-7.22 0-10.8c0 0-.19-2.62.19-1.41l2.49 10.87s.64.96-.19 1.34h18.41l.51-16.88 3.52-3.04.7-.93-1.02.45Zm-56.46 7.16-1.28 9.08s-.04 1.07-.73.47c0 0-.42-.85-1.23-1.24 0 0-.55-.3-.6-.64l-.21-5.58 3.41-2.34s.81-.6.64.26Zm1.66-8.44 2.69 4.86c-1.32 1.11-2.69 1.32-2.69 1.32-.43-3.96 0-6.18 0-6.18m3.2 7.38-1.95 6.01c-.31 1.07-.48.38-.48.38l-.6-6.65c-.04-.6 2.51-1.79 2.51-1.79l.51.64c.47.47 0 1.41 0 1.41Zm6.78 4.39c-1.53-1.75-1.15-5.11-1.15-5.11.72-4.56 1.19-6.99 1.19-6.99.13-1.41.85.55.85.55 1.24 3.24 1.45 3.71 1.45 3.71l.94 2.59c.72 2.18-.81.91-.81.91l-2.9-2.09 4.22 3.62zm14.96 9.54c-.21.81-.81 0-.81 0l-1.07-1.96c-.72-.81-.21-1-.21-1l2.09 1.64c.17.51 0 1.32 0 1.32m.4-2.13c-.06.58-.62.17-.62.17-2.79-1.6-3.15-2.18-3.15-2.18-.32-.38-.28-.53-.28-.53l4.45-4.77c.23 3.05-.4 7.31-.4 7.31m-4.05-3.5s-.45.46-.8 0c0 0-2.97-3.69-4.57-7.7l3-2.29-3.16 2.05-4.99-8.38s-.61-.96-.51-1.98c0 0 1.92-8.57 4.41-13.27 0 0 6.36 6.43 9.14 15.41 0 0 .58 1.57-.27 1.15l-2.92-1.15s2.27 1.79 4.09 2.94c0 0 .77 2.27 1.09 9.14zm14.09-6.02.72-.36c3.71 9.06-.72.36-.72.36m10.44 4.11c-.64 2.94-.9 4.77-.9 4.77-.51 1.28-.81 0-.81 0-1.15-2.47-.3-3.07-.3-3.07l1.7-2.64c.94-1.58.3.94.3.94Zm5.93-9.42s-.04-2.9.3-5.2c0 0-.13-1.03.64-.3l2 2.73zm-44.01 15.14 1.57-.44-.19.44-1.37.39v-.39Zm21.89-3.6v-.39c1.24-.62 2.28-1.79 2.28-1.79-.15.95-2.28 2.18-2.28 2.18m24.49 5.98s.19-8.45 1.69-12.88v12.69h-1.69" style="fill:url(#b)"/><path d="M28.38 57.47c3.79 0 6.25.33 7.38 1 1.38.82 1.62 2.44.74 4.86-.86 2.36-2.25 3.96-4.18 4.78-1.62.69-4.25 1.03-7.91 1.03H18.9l-1.95 5.36h-5.21l6.2-17.03zm-2.9 8.18c1.57 0 2.58-.03 3.04-.1q1.875-.285 2.58-2.22c.34-.95.31-1.55-.1-1.81q-.615-.39-3.36-.39h-5.82l-1.64 4.51h5.31Zm21.96-3.21q5.355 0 6.51 1.56c.64.87.49 2.61-.46 5.21h-12.1c-.43 1.18-.51 1.95-.25 2.31.36.48 1.45.72 3.28.72 1.18 0 1.98-.07 2.41-.2.79-.26 1.34-.8 1.64-1.62h4.51c-.69 1.9-1.91 3.13-3.65 3.69-1.11.36-3.03.54-5.79.54-3.71 0-5.97-.48-6.79-1.44-.69-.82-.59-2.47.31-4.95.79-2.17 1.84-3.66 3.16-4.46 1.49-.91 3.9-1.36 7.21-1.36Zm-5.29 4.67h7.51c.35-.96.34-1.57-.02-1.85s-1.35-.41-2.95-.41c-1.44 0-2.47.16-3.11.47-.64.32-1.11.91-1.43 1.78Zm23.76-9.64-6.2 17.03H55.3l6.2-17.03zm10.66 4.97c3.35 0 5.49.38 6.41 1.15q1.395 1.155.21 4.38l-.5 1.36c-.77 2.12-1.84 3.53-3.21 4.24s-3.82 1.06-7.36 1.06c-3.33 0-5.45-.35-6.34-1.05-.96-.75-1.03-2.24-.22-4.46l.5-1.38c.76-2.08 1.86-3.49 3.32-4.22 1.45-.73 3.84-1.09 7.18-1.09Zm1.53 6.69.42-1.15c.42-1.16.55-1.89.38-2.18-.23-.39-1.14-.59-2.72-.59h-1.05c-1.56 0-2.61.2-3.15.59-.4.29-.81 1.02-1.23 2.18l-.41 1.13c-.39 1.06-.5 1.74-.34 2.05.24.46 1.15.69 2.71.69h1.05c1.42 0 2.4-.18 2.93-.53s1-1.08 1.4-2.19Zm26.73-6.51-4.32 11.87h-4.46l.68-1.87c-.6.7-1.44 1.22-2.53 1.55s-2.35.5-3.78.5c-2.12 0-3.56-.35-4.33-1.04s-.89-1.74-.38-3.14l2.86-7.87h4.67l-2.53 6.95c-.31.86-.36 1.42-.15 1.69.26.36 1.02.54 2.27.54 1.53 0 2.74-.33 3.63-1 .66-.5 1.13-1.14 1.42-1.92l2.28-6.26zm8.7 4.44c2.48 0 3.96.02 4.44.05 1.63.12 2.8.41 3.5.87.87.56 1.09 1.44.65 2.64-.58 1.61-1.77 2.72-3.55 3.33-1.39.48-3.42.72-6.11.72s-4.45-.16-5.54-.49c-1.71-.51-2.31-1.48-1.79-2.9l.3-.82h4.67c-.27.75-.23 1.22.13 1.41.25.12.97.18 2.17.18h2.75c.62 0 1.1-.08 1.44-.23s.6-.47.77-.95c.18-.5.12-.81-.18-.95s-.87-.21-1.7-.21c-2.47 0-4.02-.03-4.65-.08-1.56-.12-2.63-.43-3.22-.92q-1.11-.9-.42-2.79c.42-1.14 1.2-2 2.34-2.56 1.33-.65 3.6-.97 6.82-.97 1.54 0 2.85.06 3.93.17s1.92.36 2.51.76c.73.48.93 1.17.6 2.08-.06.17-.12.3-.17.38-.12.15-.21.26-.25.33h-4.39c.18-.5-.1-.83-.84-1-.24-.05-.63-.09-1.18-.13h-1.87c-.59.02-1.03.05-1.32.1q-1.395.24-1.65.93-.255.705 0 .87c.16.11.54.17 1.14.17h.67Zm22.63-4.62q5.355 0 6.51 1.56c.64.87.49 2.61-.46 5.21h-12.1c-.43 1.18-.51 1.95-.25 2.31.36.48 1.45.72 3.28.72 1.18 0 1.98-.07 2.41-.2.79-.26 1.34-.8 1.64-1.62h4.51c-.69 1.9-1.91 3.13-3.65 3.69-1.11.36-3.03.54-5.79.54-3.71 0-5.97-.48-6.79-1.44-.69-.82-.59-2.47.31-4.95.79-2.17 1.84-3.66 3.16-4.46 1.49-.91 3.9-1.36 7.21-1.36Zm-5.29 4.67h7.51c.35-.96.34-1.57-.02-1.85s-1.35-.41-2.95-.41c-1.44 0-2.47.16-3.11.47-.64.32-1.11.91-1.43 1.78Zm36.44-9.24c3.09 0 5.15.38 6.17 1.14s1.17 2.15.44 4.15c-.41 1.11-1.13 2.07-2.18 2.88-1.16.89-2.53 1.41-4.11 1.57 1.47 0 2.46.3 2.96.9s.55 1.45.15 2.54l-1.4 3.85h-5.36l1.2-3.31c.27-.73.15-1.24-.37-1.52-.51-.28-1.38-.42-2.59-.42h-6.67l-1.91 5.26h-5.18l6.2-17.03h12.64Zm-3.75 8.11c1.47 0 2.53-.14 3.19-.43q.99-.42 1.47-1.74c.29-.81.33-1.34.09-1.6-.34-.38-1.3-.57-2.87-.57h-6.97l-1.58 4.33h6.67Zm21.27-1.28h2.51c2.15 0 3.74.08 4.76.23 1.54.24 2.58.67 3.14 1.3.66.77.73 1.87.2 3.32q-.96 2.655-2.91 3.9c-1.1.71-2.57 1.16-4.42 1.35q-1.47.15-5.49.15c-2.44 0-4.19-.08-5.22-.23-1.51-.22-2.53-.67-3.07-1.35-.6-.75-.63-1.86-.09-3.35.03-.08.09-.22.19-.42.1-.19.16-.33.18-.39h5.05c-.34.93-.43 1.55-.26 1.85.22.42.97.63 2.23.63h3.69c1.33 0 2.19-.03 2.57-.08 1.1-.15 1.84-.75 2.22-1.81.31-.86.16-1.43-.45-1.74-.43-.22-1.32-.33-2.66-.33h-2.23c-3.49 0-5.76-.26-6.81-.77q-2.16-1.05-.96-4.35c.68-1.87 1.87-3.14 3.56-3.82s4.53-1.01 8.52-1.01c2.21 0 3.85.09 4.91.26 1.52.24 2.56.69 3.13 1.34.67.75.75 1.83.24 3.22l-.32.88h-5.13c.36-1 .28-1.62-.26-1.86s-1.89-.35-4.06-.35c-1.85 0-3.15.12-3.91.36s-1.26.67-1.48 1.29c-.27.74-.22 1.22.15 1.43.37.22 1.19.32 2.47.32Zm46.43-6.83-6.2 17.03h-5.08l4.67-12.82-11.28 12.82h-4.67l-2.09-12.79-4.66 12.79h-5l6.2-17.03h8.31l1.38 11.85 10.52-11.85z" style="stroke-linecap:round;stroke-linejoin:round;fill:#64b331;stroke:#64b331;stroke-width:10px"/><path d="M28.38 57.47c3.79 0 6.25.33 7.38 1 1.38.82 1.62 2.44.74 4.86-.86 2.36-2.25 3.96-4.18 4.78-1.62.69-4.25 1.03-7.91 1.03H18.9l-1.95 5.36h-5.21l6.2-17.03zm-2.9 8.18c1.57 0 2.58-.03 3.04-.1q1.875-.285 2.58-2.22c.34-.95.31-1.55-.1-1.81q-.615-.39-3.36-.39h-5.82l-1.64 4.51h5.31Zm21.96-3.21q5.355 0 6.51 1.56c.64.87.49 2.61-.46 5.21h-12.1c-.43 1.18-.51 1.95-.25 2.31.36.48 1.45.72 3.28.72 1.18 0 1.98-.07 2.41-.2.79-.26 1.34-.8 1.64-1.62h4.51c-.69 1.9-1.91 3.13-3.65 3.69-1.11.36-3.03.54-5.79.54-3.71 0-5.97-.48-6.79-1.44-.69-.82-.59-2.47.31-4.95.79-2.17 1.84-3.66 3.16-4.46 1.49-.91 3.9-1.36 7.21-1.36Zm-5.29 4.67h7.51c.35-.96.34-1.57-.02-1.85s-1.35-.41-2.95-.41c-1.44 0-2.47.16-3.11.47-.64.32-1.11.91-1.43 1.78Zm23.76-9.64-6.2 17.03H55.3l6.2-17.03zm10.66 4.97c3.35 0 5.49.38 6.41 1.15q1.395 1.155.21 4.38l-.5 1.36c-.77 2.12-1.84 3.53-3.21 4.24s-3.82 1.06-7.36 1.06c-3.33 0-5.45-.35-6.34-1.05-.96-.75-1.03-2.24-.22-4.46l.5-1.38c.76-2.08 1.86-3.49 3.32-4.22 1.45-.73 3.84-1.09 7.18-1.09Zm1.53 6.69.42-1.15c.42-1.16.55-1.89.38-2.18-.23-.39-1.14-.59-2.72-.59h-1.05c-1.56 0-2.61.2-3.15.59-.4.29-.81 1.02-1.23 2.18l-.41 1.13c-.39 1.06-.5 1.74-.34 2.05.24.46 1.15.69 2.71.69h1.05c1.42 0 2.4-.18 2.93-.53s1-1.08 1.4-2.19Zm26.73-6.51-4.32 11.87h-4.46l.68-1.87c-.6.7-1.44 1.22-2.53 1.55s-2.35.5-3.78.5c-2.12 0-3.56-.35-4.33-1.04s-.89-1.74-.38-3.14l2.86-7.87h4.67l-2.53 6.95c-.31.86-.36 1.42-.15 1.69.26.36 1.02.54 2.27.54 1.53 0 2.74-.33 3.63-1 .66-.5 1.13-1.14 1.42-1.92l2.28-6.26zm8.7 4.44c2.48 0 3.96.02 4.44.05 1.63.12 2.8.41 3.5.87.87.56 1.09 1.44.65 2.64-.58 1.61-1.77 2.72-3.55 3.33-1.39.48-3.42.72-6.11.72s-4.45-.16-5.54-.49c-1.71-.51-2.31-1.48-1.79-2.9l.3-.82h4.67c-.27.75-.23 1.22.13 1.41.25.12.97.18 2.17.18h2.75c.62 0 1.1-.08 1.44-.23s.6-.47.77-.95c.18-.5.12-.81-.18-.95s-.87-.21-1.7-.21c-2.47 0-4.02-.03-4.65-.08-1.56-.12-2.63-.43-3.22-.92q-1.11-.9-.42-2.79c.42-1.14 1.2-2 2.34-2.56 1.33-.65 3.6-.97 6.82-.97 1.54 0 2.85.06 3.93.17s1.92.36 2.51.76c.73.48.93 1.17.6 2.08-.06.17-.12.3-.17.38-.12.15-.21.26-.25.33h-4.39c.18-.5-.1-.83-.84-1-.24-.05-.63-.09-1.18-.13h-1.87c-.59.02-1.03.05-1.32.1q-1.395.24-1.65.93-.255.705 0 .87c.16.11.54.17 1.14.17h.67Zm22.63-4.62q5.355 0 6.51 1.56c.64.87.49 2.61-.46 5.21h-12.1c-.43 1.18-.51 1.95-.25 2.31.36.48 1.45.72 3.28.72 1.18 0 1.98-.07 2.41-.2.79-.26 1.34-.8 1.64-1.62h4.51c-.69 1.9-1.91 3.13-3.65 3.69-1.11.36-3.03.54-5.79.54-3.71 0-5.97-.48-6.79-1.44-.69-.82-.59-2.47.31-4.95.79-2.17 1.84-3.66 3.16-4.46 1.49-.91 3.9-1.36 7.21-1.36Zm-5.29 4.67h7.51c.35-.96.34-1.57-.02-1.85s-1.35-.41-2.95-.41c-1.44 0-2.47.16-3.11.47-.64.32-1.11.91-1.43 1.78Zm36.44-9.24c3.09 0 5.15.38 6.17 1.14s1.17 2.15.44 4.15c-.41 1.11-1.13 2.07-2.18 2.88-1.16.89-2.53 1.41-4.11 1.57 1.47 0 2.46.3 2.96.9s.55 1.45.15 2.54l-1.4 3.85h-5.36l1.2-3.31c.27-.73.15-1.24-.37-1.52-.51-.28-1.38-.42-2.59-.42h-6.67l-1.91 5.26h-5.18l6.2-17.03h12.64Zm-3.75 8.11c1.47 0 2.53-.14 3.19-.43q.99-.42 1.47-1.74c.29-.81.33-1.34.09-1.6-.34-.38-1.3-.57-2.87-.57h-6.97l-1.58 4.33h6.67Zm21.27-1.28h2.51c2.15 0 3.74.08 4.76.23 1.54.24 2.58.67 3.14 1.3.66.77.73 1.87.2 3.32q-.96 2.655-2.91 3.9c-1.1.71-2.57 1.16-4.42 1.35q-1.47.15-5.49.15c-2.44 0-4.19-.08-5.22-.23-1.51-.22-2.53-.67-3.07-1.35-.6-.75-.63-1.86-.09-3.35.03-.08.09-.22.19-.42.1-.19.16-.33.18-.39h5.05c-.34.93-.43 1.55-.26 1.85.22.42.97.63 2.23.63h3.69c1.33 0 2.19-.03 2.57-.08 1.1-.15 1.84-.75 2.22-1.81.31-.86.16-1.43-.45-1.74-.43-.22-1.32-.33-2.66-.33h-2.23c-3.49 0-5.76-.26-6.81-.77q-2.16-1.05-.96-4.35c.68-1.87 1.87-3.14 3.56-3.82s4.53-1.01 8.52-1.01c2.21 0 3.85.09 4.91.26 1.52.24 2.56.69 3.13 1.34.67.75.75 1.83.24 3.22l-.32.88h-5.13c.36-1 .28-1.62-.26-1.86s-1.89-.35-4.06-.35c-1.85 0-3.15.12-3.91.36s-1.26.67-1.48 1.29c-.27.74-.22 1.22.15 1.43.37.22 1.19.32 2.47.32Zm46.43-6.83-6.2 17.03h-5.08l4.67-12.82-11.28 12.82h-4.67l-2.09-12.79-4.66 12.79h-5l6.2-17.03h8.31l1.38 11.85 10.52-11.85z" style="stroke:#000;stroke-width:5px;stroke-linecap:round;stroke-linejoin:round"/><path d="M28.38 57.47c3.79 0 6.25.33 7.38 1 1.38.82 1.62 2.44.74 4.86-.86 2.36-2.25 3.96-4.17 4.78-1.62.69-4.25 1.03-7.91 1.03h-5.51l-1.95 5.36h-5.21l6.2-17.03h10.44Zm-2.9 8.18c1.57 0 2.58-.03 3.04-.1q1.875-.285 2.58-2.22c.34-.95.31-1.55-.1-1.81q-.615-.39-3.36-.39h-5.82l-1.64 4.51h5.31Z" style="fill:url(#a)"/><path d="M47.44 62.44q5.355 0 6.51 1.56c.64.87.49 2.61-.46 5.21h-12.1c-.43 1.18-.51 1.95-.25 2.31.36.48 1.45.72 3.28.72 1.18 0 1.98-.07 2.41-.2.79-.26 1.34-.8 1.64-1.62h4.51c-.69 1.9-1.91 3.13-3.65 3.69-1.11.36-3.03.54-5.79.54-3.71 0-5.97-.48-6.79-1.44-.69-.82-.59-2.47.31-4.95.79-2.17 1.84-3.66 3.16-4.46 1.49-.91 3.9-1.36 7.21-1.36Zm-5.29 4.67h7.51c.35-.96.34-1.57-.02-1.85s-1.35-.41-2.95-.41c-1.44 0-2.47.16-3.11.47-.64.32-1.11.91-1.43 1.78Z" style="fill:url(#c)"/><path d="m65.92 57.47-6.2 17.03h-4.41l6.2-17.03z" style="fill:url(#d)"/><path d="M76.57 62.44c3.35 0 5.49.38 6.41 1.15s1 2.23.21 4.38l-.5 1.36c-.77 2.12-1.84 3.53-3.21 4.24s-3.82 1.06-7.36 1.06c-3.33 0-5.45-.35-6.34-1.05-.96-.75-1.03-2.24-.22-4.46l.5-1.38c.76-2.08 1.86-3.49 3.32-4.22 1.45-.73 3.84-1.09 7.18-1.09Zm1.53 6.69.42-1.15c.42-1.16.55-1.89.38-2.18-.23-.39-1.14-.59-2.72-.59h-1.05c-1.56 0-2.61.2-3.15.59-.4.29-.81 1.02-1.23 2.18l-.41 1.13c-.39 1.06-.5 1.74-.34 2.05.24.46 1.15.69 2.71.69h1.05c1.42 0 2.4-.18 2.93-.53s1-1.08 1.4-2.19Z" style="fill:url(#e)"/><path d="m104.83 62.62-4.32 11.87h-4.46l.68-1.87c-.6.7-1.44 1.22-2.53 1.55s-2.35.5-3.79.5c-2.12 0-3.56-.35-4.33-1.04s-.89-1.74-.38-3.14l2.87-7.87h4.67l-2.53 6.95c-.31.86-.36 1.42-.15 1.69.26.36 1.02.54 2.27.54 1.53 0 2.74-.33 3.63-1 .66-.5 1.13-1.14 1.42-1.92l2.28-6.26z" style="fill:url(#f)"/><path d="M113.53 67.06c2.48 0 3.96.02 4.44.05 1.63.12 2.8.41 3.5.87.87.56 1.09 1.44.65 2.64-.58 1.61-1.77 2.72-3.55 3.33-1.39.48-3.42.72-6.11.72s-4.45-.16-5.54-.49c-1.71-.51-2.31-1.48-1.79-2.9l.3-.82h4.67c-.27.75-.23 1.22.13 1.41.25.12.97.18 2.17.18h2.75c.62 0 1.1-.08 1.43-.23.34-.15.6-.47.77-.95.18-.5.12-.81-.18-.95s-.87-.21-1.7-.21c-2.47 0-4.02-.03-4.65-.08-1.56-.12-2.63-.43-3.22-.92q-1.11-.9-.42-2.79c.42-1.14 1.2-2 2.34-2.56 1.33-.65 3.6-.97 6.82-.97 1.54 0 2.85.06 3.93.17s1.92.36 2.51.76c.73.48.93 1.17.6 2.08-.06.17-.12.3-.17.38-.12.15-.21.26-.25.33h-4.38c.18-.5-.1-.83-.84-1-.24-.05-.63-.09-1.18-.13h-1.87c-.59.02-1.03.05-1.32.1q-1.395.24-1.65.93-.255.705 0 .87c.16.11.54.17 1.14.17h.67Z" style="fill:url(#g)"/><path d="M136.16 62.44q5.355 0 6.51 1.56c.64.87.49 2.61-.46 5.21h-12.1c-.43 1.18-.51 1.95-.25 2.31.36.48 1.45.72 3.28.72 1.18 0 1.98-.07 2.41-.2.79-.26 1.34-.8 1.64-1.62h4.51c-.69 1.9-1.91 3.13-3.65 3.69-1.11.36-3.03.54-5.79.54-3.71 0-5.97-.48-6.79-1.44-.69-.82-.59-2.47.31-4.95.79-2.17 1.84-3.66 3.16-4.46 1.49-.91 3.9-1.36 7.21-1.36Zm-5.29 4.67h7.51c.35-.96.34-1.57-.02-1.85s-1.35-.41-2.95-.41c-1.44 0-2.47.16-3.11.47-.64.32-1.11.91-1.43 1.78Z" style="fill:url(#h)"/><path d="M167.31 57.87c3.09 0 5.15.38 6.17 1.14s1.17 2.15.44 4.15c-.41 1.11-1.13 2.07-2.18 2.88-1.16.89-2.53 1.41-4.11 1.57 1.47 0 2.46.3 2.96.9s.55 1.45.15 2.54l-1.4 3.85h-5.36l1.2-3.31c.27-.73.15-1.24-.37-1.52-.51-.28-1.38-.42-2.59-.42h-6.67l-1.91 5.26h-5.18l6.2-17.03h12.64Zm-3.75 8.11c1.47 0 2.53-.14 3.19-.43q.99-.42 1.47-1.74c.29-.81.33-1.34.09-1.6-.34-.38-1.3-.57-2.87-.57h-6.97l-1.58 4.33h6.67Z" style="fill:url(#i)"/><path d="M184.83 64.7h2.51c2.15 0 3.74.08 4.76.23 1.54.24 2.58.67 3.14 1.3.66.77.73 1.87.2 3.32q-.96 2.655-2.91 3.9c-1.1.71-2.57 1.16-4.42 1.35q-1.47.15-5.49.15c-2.44 0-4.19-.08-5.22-.23-1.51-.22-2.53-.67-3.07-1.35-.6-.75-.63-1.86-.09-3.35.03-.08.09-.22.19-.42.1-.19.16-.33.18-.39h5.05c-.34.93-.43 1.55-.26 1.85.22.42.97.63 2.23.63h3.69c1.33 0 2.19-.03 2.57-.08 1.1-.15 1.84-.75 2.22-1.81.31-.86.16-1.43-.45-1.74-.43-.22-1.32-.33-2.66-.33h-2.23c-3.49 0-5.76-.26-6.81-.77q-2.16-1.05-.96-4.35c.68-1.87 1.87-3.14 3.56-3.82s4.53-1.01 8.52-1.01c2.21 0 3.85.09 4.91.26 1.52.24 2.56.69 3.13 1.34.67.75.75 1.83.24 3.22l-.32.88h-5.13c.36-1 .28-1.62-.26-1.86s-1.89-.35-4.06-.35c-1.85 0-3.15.12-3.91.36s-1.26.67-1.48 1.29c-.27.74-.22 1.22.15 1.43.37.22 1.19.32 2.47.32Z" style="fill:url(#j)"/><path d="m231.26 57.87-6.2 17.03h-5.08l4.67-12.82-11.28 12.82h-4.67l-2.09-12.79-4.66 12.79h-5l6.2-17.03h8.31l1.38 11.85 10.52-11.85z" style="fill:url(#k)"/><path d="M102.46 36.72c18.96-20.11 46.91-24.55 62.41-9.93 6.03 5.69 9.28 13.43 9.9 21.94h9.66c-.29-10.22-3.92-19.57-11.07-26.32-17.18-16.21-48.15-11.28-69.17 11.01-4.5 4.77-8.17 9.95-11.01 15.31h.33c2.4-4.19 5.39-8.24 8.95-12.01" style="fill:url(#l)"/><path d="M161.16 93.14c-18.96 20.11-46.91 24.55-62.41 9.93-5.44-5.13-8.62-11.93-9.64-19.47h-.16c.92 8.91 4.49 16.97 10.86 22.98 17.18 16.21 48.15 11.28 69.17-11.01 3.56-3.77 6.59-7.8 9.11-11.97h-9.48a64.7 64.7 0 0 1-7.44 9.54Z" style="fill:url(#m)"/></svg>